<?xml version="1.0" encoding="UTF-8" standalone="no"?>
<svg
   xmlns:dc="http://purl.org/dc/elements/1.1/"
   xmlns:cc="http://creativecommons.org/ns#"
   xmlns:rdf="http://www.w3.org/1999/02/22-rdf-syntax-ns#"
   xmlns:svg="http://www.w3.org/2000/svg"
   xmlns="http://www.w3.org/2000/svg"
   xmlns:sodipodi="http://sodipodi.sourceforge.net/DTD/sodipodi-0.dtd"
   xmlns:inkscape="http://www.inkscape.org/namespaces/inkscape"
   id="a8ebc32a-e748-45d9-a61d-aeebf59cfff3"
   data-name="Layer 1"
   width="550"
   height="600"
   viewBox="0 0 550 600.00001"
   version="1.1"
   sodipodi:docname="undraw_source_code_xx2e.svg"
   inkscape:version="0.92.4 (5da689c313, 2019-01-14)">
  <metadata
     id="metadata105">
    <rdf:RDF>
      <cc:Work
         rdf:about="">
        <dc:format>image/svg+xml</dc:format>
        <dc:type
           rdf:resource="http://purl.org/dc/dcmitype/StillImage" />
        <dc:title>source_code</dc:title>
      </cc:Work>
    </rdf:RDF>
  </metadata>
  <defs
     id="defs103" />
  <sodipodi:namedview
     pagecolor="#ffffff"
     bordercolor="#666666"
     borderopacity="1"
     objecttolerance="10"
     gridtolerance="10"
     guidetolerance="10"
     inkscape:pageopacity="0"
     inkscape:pageshadow="2"
     inkscape:window-width="1366"
     inkscape:window-height="705"
     id="namedview101"
     showgrid="false"
     inkscape:zoom="0.61373773"
     inkscape:cx="133.92386"
     inkscape:cy="369.1874"
     inkscape:window-x="-8"
     inkscape:window-y="-8"
     inkscape:window-maximized="1"
     inkscape:current-layer="a8ebc32a-e748-45d9-a61d-aeebf59cfff3" />
  <title
     id="title2">source_code</title>
  <path
     style="fill:#6e5625;fill-opacity:1;stroke-width:0.98716617"
     d="m 550,548.68124 c 5e-5,7.08564 -123.12166,12.8297 -275,12.8297 -151.87834,0 -275.000049371619,-5.74406 -275,-12.8297 6.9120302e-5,-7.08564 124.82823,-29.91237 275,-12.82969 150.90705,17.16632 274.99993,5.74405 275,12.82969 z"
     id="ellipse6"
     inkscape:connector-curvature="0"
     sodipodi:nodetypes="cscsc" />
  <path
     style="fill:#907858;fill-opacity:1;stroke-width:0.98716617"
     d="m 362.38779,587.17031 c 2e-5,7.08564 -43.76677,12.8297 -97.75583,12.8297 -53.98907,0 -97.75586,-5.74406 -97.75584,-12.8297 3e-5,-7.08564 42.56014,-5.17948 97.75584,-16.45347 52.8991,-10.80491 97.7558,9.36783 97.75583,16.45347 z"
     id="ellipse8"
     inkscape:connector-curvature="0"
     sodipodi:nodetypes="cscsc" />
  <path
     d="m 183.16879,279.75107 v 7.8952 c 0,0 -8.90994,41.28116 4.93716,39.47599 22.71096,-2.9607 5.9246,-36.51529 5.9246,-36.51529 v -6.9083 z"
     id="path10"
     inkscape:connector-curvature="0"
     style="fill:#ffb8b8;stroke-width:0.98716617" />
  <polygon
     points="306.5,533.462 328.5,525.462 318.5,502.462 297.5,508.462 "
     id="polygon12"
     transform="matrix(0.98743268,0,0,0.98689971,0,0.00250789)"
     style="fill:#ffb8b8" />
  <polygon
     points="236.5,555.462 259.5,562.462 260.5,539.462 242.5,533.462 "
     id="polygon14"
     transform="matrix(0.98743268,0,0,0.98689971,0,0.00250789)"
     style="fill:#ffb8b8" />
  <path
     d="m 219.7038,277.77728 -1.97487,10.8559 c 0,0 -0.98743,7.89519 0,12.82969 0.98744,4.9345 72.08259,209.22273 72.08259,209.22273 l 30.61041,-11.84279 -39.4973,-129.28386 -4.93717,-99.67687 z"
     id="path16"
     inkscape:connector-curvature="0"
     style="fill:#2f2e41;stroke-width:0.98716617" />
  <path
     d="m 258.21367,275.80348 -3.94973,146.06115 c 0,0 -8.88689,9.869 -6.91203,16.77729 1.97487,6.90831 -4.93716,64.14849 -4.93716,64.14849 l -5.92459,28.62009 25.67324,7.8952 c 0,0 4.93717,-25.6594 8.8869,-28.6201 3.94973,-2.9607 26.66068,-91.78167 26.66068,-97.70307 0,-5.92139 16.78636,-137.17905 16.78636,-137.17905 l -41.47218,-16.7773 z"
     id="path18"
     inkscape:connector-curvature="0"
     style="fill:#2f2e41;stroke-width:0.98716617" />
  <path
     d="m 304.62301,510.6856 c 0,0 -10.86176,-11.84279 -16.78636,0 a 239.93534,239.80583 0 0 1 -14.81149,24.6725 c 0,0 -31.59784,18.75109 0,23.68559 0,0 17.77379,0.9869 26.66069,-4.9345 8.88689,-5.92139 32.58527,-14.80349 32.58527,-16.77729 0,-1.9738 -5.92459,-30.98866 -11.84919,-27.83057 -5.92459,3.15807 -15.79892,1.18427 -15.79892,1.18427 z"
     id="path20"
     inkscape:connector-curvature="0"
     style="fill:#2f2e41;stroke-width:0.98716617" />
  <path
     d="m 250.31421,543.2533 c 0,0 -8.88689,-12.8297 -16.78635,-3.9476 -7.89946,8.8821 -17.77379,34.54149 -17.77379,34.54149 0,0 -17.77379,26.64629 9.87433,25.65939 27.64811,-0.9869 29.62298,-10.8559 29.62298,-10.8559 0,0 3.94973,-25.65939 3.94973,-26.64629 0,-0.9869 -1.97487,-11.13177 -1.97487,-11.13177 z"
     id="path22"
     inkscape:connector-curvature="0"
     style="fill:#2f2e41;stroke-width:0.98716617" />
  <ellipse
     cx="243.89587"
     cy="45.362381"
     id="circle24"
     rx="27.648115"
     ry="27.633192"
     style="fill:#ffb8b8;stroke-width:0.98716617" />
  <path
     d="m 229.57813,62.633138 3.94973,31.58079 11.84919,29.606982 25.67325,-30.593881 V 78.423533 c 0,0 -7.89946,-11.842797 -5.9246,-21.711794 z"
     id="path26"
     inkscape:connector-curvature="0"
     style="fill:#ffb8b8;stroke-width:0.98716617" />
  <path
     d="m 243.40218,101.12222 -13.82405,-5.921392 -14.81149,174.681242 2.96229,10.8559 c 0,0 7.89947,4.93449 32.58528,0.98689 24.68582,-3.94759 65.17056,-0.98689 65.17056,-0.98689 l 2.9623,-89.80788 -48.3842,-105.59826 z"
     id="path28"
     inkscape:connector-curvature="0"
     style="fill:#d0cde1;stroke-width:0.98716617" />
  <path
     d="m 218.71637,273.82966 c 0,0 18.76122,-162.83844 17.77379,-165.79914 -0.98744,-2.9607 -17.77379,-10.977705 -17.77379,-10.977705 0,0 -28.63555,18.872895 -27.64812,25.781195 0.98743,6.90829 18.76122,152.96946 18.76122,152.96946 z"
     id="path30"
     inkscape:connector-curvature="0"
     style="fill:#6a3663;fill-opacity:1;stroke-width:0.98716617" />
  <path
     d="m 293.76125,261.98687 c 0,0 -29.62298,-115.46727 -30.61041,-141.12666 -0.98744,-25.659382 -0.98744,-28.620081 -0.98744,-28.620081 0,0 45.42191,-15.790396 61.22083,0 l 2.9623,82.899571 c 0,0 4.93716,35.52839 2.9623,46.38428 a 122.28971,122.2237 0 0 1 -5.9246,20.7249 c 0,0 10.86176,10.85589 0.98743,13.81659 -9.87432,2.9607 -16.78635,-1.9738 -20.73608,2.9607 -3.94973,4.9345 -9.87433,2.9607 -9.87433,2.9607 z"
     id="path32"
     inkscape:connector-curvature="0"
     style="fill:#6a3663;fill-opacity:1;stroke-width:0.98716617" />
  <path
     d="m 197.98028,116.91262 c 0,0 -11.84919,0 -10.86176,13.8166 0.98743,13.8166 0,77.96508 0,77.96508 0,0 -8.88689,54.27948 -5.92459,58.22708 2.96229,3.94759 -0.98744,16.77729 -0.98744,16.77729 l 17.77379,3.9476 c 0,0 1.97487,-13.8166 5.9246,-14.80349 3.94973,-0.9869 9.87432,-29.607 9.87432,-29.607 z"
     id="path34"
     inkscape:connector-curvature="0"
     style="fill:#6a3663;fill-opacity:1;stroke-width:0.98716617" />
  <path
     d="m 331.28369,238.30128 -4.53429,8.23963 c 0,0 -31.10038,24.75342 -15.75165,33.91632 15.34872,9.1629 30.16027,-24.39175 30.16027,-24.39175 l 4.93716,-8.88209 z"
     id="path36"
     inkscape:connector-curvature="0"
     style="fill:#ffb8b8;stroke-width:0.98716617" />
  <path
     d="m 309.56017,90.266329 13.82406,1.9738 c 0,0 15.79892,10.855891 16.78636,16.777281 0.98743,5.9214 32.58527,60.20089 32.58527,60.20089 a 32.140371,32.123023 0 0 1 2.9623,12.82969 c 0,6.9083 -10.86176,59.21399 -16.78635,60.20089 -5.9246,0.98689 -9.87433,10.85589 -9.87433,10.85589 l -20.73609,-12.8297 a 50.401941,50.374736 0 0 1 0.98744,-8.88209 c 0.98743,-4.9345 4.93716,-14.80349 4.93716,-14.80349 l 5.9246,-20.7249 a 7.4057451,7.4017478 0 0 1 -2.9623,-5.9214 c 0,-3.94759 -16.78636,-24.67249 -16.78636,-24.67249 z"
     id="path38"
     inkscape:connector-curvature="0"
     style="fill:#6a3663;fill-opacity:1;stroke-width:0.98716617" />
  <path
     d="m 240.32511,111.19794 c 0,0 -25.55847,-7.11502 -23.58361,-12.049522 1.97487,-4.93449 3.94973,-5.921389 3.94973,-5.921389 0,0 2.9623,-7.895199 5.9246,-7.895199 2.9623,0 5.49802,-2.424151 5.49802,-2.424151 l 11.28833,18.214541 z"
     id="path40"
     inkscape:connector-curvature="0"
     style="fill:#d0cde1;stroke-width:0.98716617" />
  <path
     d="m 268.10273,72.995584 c 0,0 9.85957,-2.467249 13.8093,0.493451 3.94973,2.960698 6.91203,2.960698 7.89946,4.934498 0.98743,1.9738 13.82406,3.947599 9.87433,6.908297 -3.94973,2.9607 -56.28367,15.79039 -56.28367,15.79039 l 24.68582,-17.764189 z"
     id="path42"
     inkscape:connector-curvature="0"
     style="fill:#d0cde1;stroke-width:0.98716617" />
  <path
     d="M 271.18459,15.959779 A 34.080972,34.062577 0 0 0 251.79803,1.1471833 l -5.92726,4.7392207 2.30441,-5.5277634 a 31.373698,31.356765 0 0 0 -5.8583,-0.33839812 l -5.33301,6.85306122 2.20727,-6.61832709 A 33.755159,33.73694 0 0 0 215.90523,14.098614 c -6.78762,9.781844 -6.33334,23.379239 0.34256,33.237578 1.83267,-5.628783 2.45725,-10.904452 4.28989,-16.533284 a 16.669493,16.660495 0 0 0 4.34219,0.02114 l 2.22967,-5.199648 0.62282,4.979728 c 6.9107,-0.601812 17.16099,-1.922895 23.71261,-3.133407 l -0.63704,-3.820121 3.81149,3.174531 c 2.00729,-0.461869 3.19903,-0.880641 3.10054,-1.200731 4.87255,7.850924 9.70054,12.86547 14.57295,20.716337 1.8496,-11.073953 5.11481,-20.278973 -1.10832,-30.380958 z"
     id="path44"
     inkscape:connector-curvature="0"
     style="fill:#2f2e41;stroke-width:0.98716617" />
  <ellipse
     cx="269.56912"
     cy="41.414783"
     rx="1.9748653"
     ry="3.9475989"
     id="ellipse46"
     style="fill:#ffb8b8;stroke-width:0.98716617" />
  <path
     d="m 75.880014,511.87215 c 19.512223,11.73287 27.027016,35.03757 27.027016,35.03757 0,0 -24.120794,4.28197 -43.633017,-7.4509 -19.512222,-11.73286 -27.027019,-35.03757 -27.027019,-35.03757 0,0 24.120788,-4.28197 43.63302,7.4509 z"
     id="path50"
     inkscape:connector-curvature="0"
     style="fill:#00792c;fill-opacity:1;stroke-width:0.98716617" />
  <rect
     x="150.08977"
     y="529.93011"
     width="18.761221"
     height="14.803495"
     id="rect96"
     style="fill:#009b59;fill-opacity:1;stroke-width:0.98716617" />
  <rect
     x="305.1167"
     y="573.3537"
     width="18.761221"
     height="14.803495"
     id="rect98"
     style="fill:#006c48;fill-opacity:1;stroke-width:0.98716617" />
  <path
     style="fill:#00792c;fill-opacity:1;stroke-width:0.98716617"
     inkscape:connector-curvature="0"
     id="path912"
     d="m 113.53493,503.93957 c 2.94214,22.59449 -10.6279,42.97015 -10.6279,42.97015 0,0 -18.340225,-16.25728 -21.282369,-38.85178 -2.942145,-22.5945 10.627905,-42.97016 10.627905,-42.97016 0,0 18.340214,16.25728 21.282364,38.85179 z" />
</svg>
